# xmcd
#
# Track frame offsets:
#	150
#	14654
#	24081
#	33306
#	44671
#	54331
#	72885
#	86535
#	96165
#	109970
#	121386
#	135091
#	145757
#	156716
#	169332
#
# Disc length: 2509 seconds
#
# Revision: 2
# Processed by: cddbd v1.5.2PL0 Copyright (c) Steve Scherf et al.
# Submitted via: audiograbber 1.83.01
#
DISCID=ca09cb0f
DTITLE=Florian Michlbauer - Meine Musik - mein Leben  CD2
DYEAR=2006
DGENRE=
TTITLE0=Florian Michlbauer - Atterseer Hochzeitsmarsch
TTITLE1=Florian Michlbauer - Hans und Hannes
TTITLE2=Florian Michlbauer - Trüabe Äugal
TTITLE3=Florian Michlbauer - Jubiläumsmarsch
TTITLE4=Florian Michlbauer - Purzelbam
TTITLE5=Florian Michlbauer - Für Anna Maria
TTITLE6=Florian Michlbauer - Versöhnungsboarischer
TTITLE7=Florian Michlbauer - Ländlervariationen
TTITLE8=Florian Michlbauer - Jagarisch
TTITLE9=Florian Michlbauer - Sonntag - Frühschoppen
TTITLE10=Florian Michlbauer - D´Musi spüt auf
TTITLE11=Florian Michlbauer - Winterfreuden
TTITLE12=Florian Michlbauer - Mei Herzal schlagt für di
TTITLE13=Florian Michlbauer - Vogelkonzert in As
TTITLE14=Florian Michlbauer - Für meine Harmonikafreunde
EXTD=
EXTT0=
EXTT1=
EXTT2=
EXTT3=
EXTT4=
EXTT5=
EXTT6=
EXTT7=
EXTT8=
EXTT9=
EXTT10=
EXTT11=
EXTT12=
EXTT13=
EXTT14=
PLAYORDER=
